<svg xmlns="http://www.w3.org/2000/svg" viewBox="0 0 100 100" width="100%" height="100%">
  <defs>
    <filter id="shadowParado" x="-10%" y="-10%" width="130%" height="130%">
      <feDropShadow dx="1" dy="2" stdDeviation="1.5" flood-color="#000" flood-opacity="0.3"/>
    </filter>
  </defs>
  <g filter="url(#shadowParado)">
    <rect x="10" y="10" width="80" height="80" rx="8" fill="#2ecc71" stroke="#27ae60" stroke-width="2"/>
    <line x1="15" y1="18" x2="85" y2="18" stroke="#fff" stroke-width="3" stroke-linecap="round"/>
    <path d="M 35 18 L 35 32 L 65 32 L 65 18" fill="none" stroke="#fff" stroke-width="3" stroke-linejoin="round"/>
    <path d="M 22 18 L 22 55 L 78 55 L 78 18" fill="none" stroke="#fff" stroke-width="3" stroke-linejoin="round"/>
    <circle cx="50" cy="42" r="3.5" fill="#fff"/>
    <path d="M 38 55 C 38 68, 62 68, 62 55" fill="none" stroke="#fff" stroke-width="3" stroke-linecap="round"/>
    
    <g transform="translate(50, 32)">
      <path d="M -10 -2 L -10 6 C -10 13, -7 18, 0 18 C 7 18, 10 13, 10 6 L 10 -2 Z" fill="#e67e22" stroke="#fff" stroke-width="1.5"/>
      <rect x="-10" y="-12" width="4" height="12" rx="2" fill="#e67e22" stroke="#fff" stroke-width="1.5"/>
      <rect x="-4" y="-14" width="4" height="14" rx="2" fill="#e67e22" stroke="#fff" stroke-width="1.5"/>
      <rect x="2" y="-13" width="4" height="13" rx="2" fill="#e67e22" stroke="#fff" stroke-width="1.5"/>
      <rect x="8" y="-10" width="4" height="10" rx="2" fill="#e67e22" stroke="#fff" stroke-width="1.5"/>
      <path d="M -10 4 L -15 8 C -17 10, -15 13, -12 12 L -6 7" fill="#e67e22" stroke="#fff" stroke-width="1.5" stroke-linecap="round" stroke-linejoin="round"/>
      <rect x="-12" y="18" width="24" height="6" rx="1" fill="#34495e" stroke="#fff" stroke-width="1.5"/>
    </g>
  </g>
</svg>
