<svg xmlns="http://www.w3.org/2000/svg" viewBox="0 0 100 100" width="100%" height="100%">
  <defs>
    <filter id="shadowFallado" x="-10%" y="-10%" width="130%" height="130%">
      <feDropShadow dx="1" dy="2" stdDeviation="1.5" flood-color="#000" flood-opacity="0.3"/>
    </filter>
  </defs>
  <g filter="url(#shadowFallado)">
    <rect x="10" y="10" width="80" height="80" rx="8" fill="#2ecc71" stroke="#27ae60" stroke-width="2"/>
    <line x1="15" y1="18" x2="85" y2="18" stroke="#fff" stroke-width="3" stroke-linecap="round"/>
    <path d="M 35 18 L 35 32 L 65 32 L 65 18" fill="none" stroke="#fff" stroke-width="3" stroke-linejoin="round"/>
    <path d="M 22 18 L 22 55 L 78 55 L 78 18" fill="none" stroke="#fff" stroke-width="3" stroke-linejoin="round"/>
    <circle cx="50" cy="42" r="3.5" fill="#fff"/>
    <path d="M 38 55 C 38 68, 62 68, 62 55" fill="none" stroke="#fff" stroke-width="3" stroke-linecap="round"/>
    
    <g transform="translate(50, 42)">
      <line x1="-10" y1="-10" x2="10" y2="10" stroke="#fff" stroke-width="10" stroke-linecap="round"/>
      <line x1="10" y1="-10" x2="-10" y2="10" stroke="#fff" stroke-width="10" stroke-linecap="round"/>
      <line x1="-10" y1="-10" x2="10" y2="10" stroke="#e74c3c" stroke-width="6" stroke-linecap="round"/>
      <line x1="10" y1="-10" x2="-10" y2="10" stroke="#e74c3c" stroke-width="6" stroke-linecap="round"/>
    </g>
  </g>
</svg>
